<?xml version="1.0" standalone="no"?>
<!DOCTYPE svg PUBLIC "-//W3C//DTD SVG 20010904//EN"
 "http://www.w3.org/TR/2001/REC-SVG-20010904/DTD/svg10.dtd">
<svg version="1.0" xmlns="http://www.w3.org/2000/svg"
 width="1920.000000pt" height="1080.000000pt" viewBox="0 0 1920.000000 1080.000000"
 preserveAspectRatio="xMidYMid meet">

<g transform="translate(0.000000,1080.000000) scale(0.100000,-0.100000)"
fill="#000000" stroke="none">
<path d="M9148 9049 c-511 -29 -1039 -184 -1494 -439 -706 -395 -1249 -1006
-1564 -1759 -55 -133 -61 -150 -114 -321 -170 -552 -198 -1164 -79 -1750 54
-268 155 -567 282 -834 33 -71 61 -140 61 -153 0 -13 6 -23 14 -23 8 0 44 -48
80 -108 643 -1068 1795 -1722 3031 -1722 536 0 1048 117 1525 346 498 240 906
565 1249 994 417 520 685 1172 756 1835 20 178 22 507 6 685 -80 868 -447
1645 -1057 2240 -298 291 -574 484 -946 664 -283 137 -540 224 -847 285 -179
36 -279 48 -486 61 -175 11 -215 11 -417 -1z m642 -134 c160 -22 265 -42 404
-76 924 -231 1713 -840 2179 -1683 210 -379 345 -801 403 -1261 25 -196 25
-628 1 -810 -112 -823 -452 -1501 -1039 -2071 -551 -536 -1269 -866 -2053
-944 -156 -16 -505 -14 -670 4 -650 69 -1268 322 -1775 726 -119 95 -325 293
-444 426 -150 167 -310 394 -426 603 l-63 114 12 127 c21 233 92 602 157 820
32 109 125 350 134 350 4 0 23 -17 42 -38 53 -58 227 -212 317 -280 158 -119
294 -188 520 -264 l156 -52 -42 -9 c-32 -6 -43 -13 -43 -27 0 -25 19 -28 225
-29 628 -4 954 -60 1094 -187 43 -38 81 -99 81 -129 0 -33 -31 -75 -74 -100
-160 -94 -476 -157 -941 -190 -88 -6 -202 -16 -225 -20 -14 -3 -142 -14 -222
-20 -61 -4 -149 14 -200 42 -26 14 -81 57 -122 94 -71 66 -116 87 -116 55 0
-21 177 -173 235 -201 94 -47 165 -50 405 -20 63 7 153 17 200 20 47 3 105 8
130 10 25 2 81 7 125 10 94 7 299 33 369 46 74 14 77 10 11 -13 -86 -30 -92
-43 -42 -92 34 -35 111 -62 727 -260 530 -169 500 -164 633 -117 781 275 1457
520 1582 572 84 35 155 91 174 137 11 28 310 1381 332 1506 l13 69 -28 23
c-15 13 -34 24 -43 24 -9 0 -82 -18 -162 -40 -80 -22 -337 -92 -571 -155 -938
-254 -1016 -278 -1062 -322 -37 -35 -45 -63 -109 -396 -29 -154 -55 -275 -57
-269 -1 5 -21 6 -50 1 -449 -80 -465 -85 -558 -171 -35 -34 -66 -59 -68 -57
-1 2 -18 33 -38 69 -49 91 -85 186 -93 245 l-6 50 50 38 c27 21 77 73 111 116
l61 78 77 11 c103 15 268 31 370 35 45 2 84 6 87 9 3 3 3 13 -1 22 -9 23 -107
21 -335 -5 -100 -11 -183 -19 -185 -17 -2 3 30 57 71 122 73 117 102 176 85
176 -4 0 -15 2 -23 6 -10 3 -30 -23 -67 -88 -97 -172 -278 -405 -357 -459
-206 -142 -737 -130 -1241 27 -352 109 -725 302 -1006 519 l-88 68 5 41 c20
140 144 492 245 694 l76 152 46 1 c25 0 52 2 60 3 8 2 80 6 160 10 80 4 178 9
218 13 39 3 72 2 72 -3 2 -29 14 -97 26 -149 58 -230 236 -368 454 -352 142
11 266 64 357 154 78 75 104 139 111 268 2 57 8 108 11 113 4 6 56 14 116 18
l110 7 17 -84 c19 -91 76 -217 130 -287 111 -144 352 -189 545 -102 45 21 70
27 77 20 5 -5 21 -10 34 -10 22 0 23 3 17 40 -5 29 -1 58 17 107 19 57 23 88
23 193 0 83 -5 136 -14 157 -13 32 -42 50 -60 38 -6 -3 -49 -6 -96 -7 l-86 -1
-31 39 c-48 60 -143 149 -227 213 -65 50 -82 69 -109 125 -18 36 -32 68 -32
71 0 17 -89 211 -126 276 -75 130 -147 199 -208 199 -56 0 -118 -93 -221 -330
l-41 -94 -105 3 c-58 1 -149 -5 -206 -13 -163 -25 -169 -24 -201 30 -42 72
-164 232 -232 307 -55 60 -66 67 -99 67 -43 0 -58 -13 -91 -80 -40 -78 -111
-281 -136 -390 -24 -99 -29 -110 -93 -195 -89 -119 -151 -209 -186 -270 -16
-27 -30 -51 -31 -53 -1 -2 -45 -10 -99 -18 -53 -8 -114 -23 -135 -34 -64 -33
-99 -103 -79 -158 13 -34 49 -12 49 29 0 63 93 119 196 119 32 0 29 -11 -41
-145 -65 -123 -135 -308 -181 -474 -29 -107 -39 -130 -64 -152 -34 -29 -85
-147 -94 -214 -2 -22 -20 -75 -40 -117 -91 -200 -192 -587 -245 -943 -18 -116
-19 -129 -21 -160 l-1 -30 -19 36 c-80 152 -189 497 -239 761 -57 299 -77 715
-47 997 99 924 553 1755 1280 2339 524 422 1171 681 1846 741 148 14 571 5
710 -14z m-1090 -1610 c31 -16 116 -129 155 -205 12 -25 39 -88 60 -140 92
-235 91 -234 153 -276 57 -39 220 -185 236 -212 5 -9 4 -17 -4 -22 -7 -5 -113
-9 -234 -10 -122 -1 -239 -3 -261 -5 -22 -1 -134 -6 -250 -10 -115 -3 -230 -8
-255 -10 -25 -2 -115 -7 -200 -10 -85 -3 -186 -8 -225 -10 -38 -2 -128 -7
-200 -10 -71 -3 -161 -8 -200 -10 -58 -3 -337 -18 -369 -20 -5 0 -11 5 -13 10
-4 13 82 150 185 293 67 93 81 119 91 173 7 35 45 153 84 262 67 186 72 197
96 197 19 0 40 -17 77 -58 74 -84 180 -225 215 -288 50 -88 46 -87 235 -64
216 27 344 19 575 -36 86 -20 164 -34 174 -30 14 5 17 15 13 51 -8 62 -68 221
-99 258 -24 29 -29 30 -52 20 -27 -12 -81 -107 -106 -185 -14 -42 -20 -44 -87
-27 -53 14 -56 -1 38 196 92 195 106 210 168 178z m47 -306 c31 -82 41 -129
26 -129 -5 0 -41 7 -81 17 -73 17 -74 17 -68 46 10 47 67 158 79 154 7 -2 26
-42 44 -88z m3153 -1249 c12 -8 11 -21 -8 -102 -12 -51 -60 -268 -107 -483
-236 -1082 -209 -973 -246 -1012 -19 -19 -47 -42 -63 -50 -99 -52 -1692 -621
-1704 -609 -12 13 -3 74 52 356 30 157 100 521 156 810 56 289 106 537 111
552 20 51 50 66 244 122 215 62 870 243 1259 347 143 38 262 72 265 74 7 8 25
6 41 -5z m-5136 -432 c107 -91 321 -229 475 -307 267 -136 443 -203 706 -271
253 -65 360 -81 568 -87 103 -3 186 -8 183 -10 -13 -13 -211 -34 -371 -40
-405 -14 -780 59 -1079 209 -138 68 -142 71 -296 192 -191 148 -320 283 -320
332 0 13 5 33 12 43 15 25 27 19 122 -61z m2306 -631 c0 -34 42 -151 83 -233
40 -80 89 -148 155 -216 33 -34 42 -49 31 -53 -11 -4 -447 -137 -526 -161 -10
-3 10 9 45 26 81 41 127 85 142 137 18 59 -7 121 -74 188 -75 75 -131 102
-283 141 -123 31 -164 44 -137 44 5 0 70 9 146 20 151 22 262 55 341 100 63
36 77 37 77 7z m830 -223 c-11 -60 -24 -111 -28 -115 -4 -3 -110 -36 -235 -74
l-228 -68 -64 63 c-63 63 -64 64 -49 92 24 46 109 106 182 128 37 11 148 34
246 50 99 17 182 32 184 35 13 13 12 -11 -8 -111z m-34 -181 c-5 -17 -81 -403
-126 -641 -12 -62 -19 -124 -16 -138 6 -24 5 -25 -31 -18 -98 17 -1139 357
-1164 380 l-20 18 23 9 c37 14 668 208 998 307 168 50 310 93 315 95 21 7 26
4 21 -12z"/>
<path d="M8818 6065 c-3 -3 -1 -25 4 -47 5 -23 8 -51 6 -62 -3 -20 -4 -20 -28
5 -14 14 -33 35 -42 47 -30 38 -45 27 -52 -35 -8 -71 -17 -87 -44 -79 -24 8
-36 50 -27 98 7 43 -8 67 -32 52 -14 -9 -18 -24 -17 -66 1 -63 18 -103 55
-131 35 -26 63 -16 95 34 24 39 25 39 54 24 16 -8 35 -15 43 -15 24 0 47 35
47 71 0 54 -42 124 -62 104z"/>
<path d="M7590 7126 c-14 -39 -28 -97 -39 -171 -19 -126 -21 -159 -15 -193 8
-40 8 -40 163 8 117 37 141 51 122 73 -7 9 -18 14 -25 11 -7 -3 -27 23 -50 63
-20 37 -53 91 -73 118 -28 37 -36 58 -34 83 2 27 -1 32 -18 32 -13 0 -25 -9
-31 -24z m86 -182 c19 -30 37 -66 40 -82 5 -23 1 -30 -20 -40 -15 -7 -45 -15
-68 -18 l-41 -7 6 79 c6 87 21 139 38 128 6 -3 26 -30 45 -60z"/>
</g>
</svg>
